<?xml version="1.0" encoding="utf-8"?>
<svg viewBox="0 0 500 500" xmlns="http://www.w3.org/2000/svg" xmlns:bx="https://boxy-svg.com">
  <ellipse style="stroke: rgba(255, 255, 255, 0); fill: rgb(151, 255, 126);" cx="250" cy="354.402" rx="229.295" ry="128.895" transform="matrix(1, 0, 0, 1, 1.1368683772161603e-13, 0)"/>
  <g transform="matrix(1.3081259727478027, 0, 0, 1.3081259727478027, -3.072460889816284, -78.36483764648438)" style="">
    <ellipse style="stroke: rgba(0, 0, 0, 0); fill: rgb(54, 54, 54);" cx="193.462" cy="326.004" rx="27.28" ry="18.185"/>
    <path d="M 193.425 72.675 H 193.499 A 5 5 0 0 1 198.499 77.675 V 342.094 A 2 2 0 0 1 196.499 344.094 H 190.425 A 2 2 0 0 1 188.425 342.094 V 77.675 A 5 5 0 0 1 193.425 72.675 Z M 193.462 105.572 V 311.197 H 193.462 V 105.572 H 193.462 Z" style="stroke: rgba(0, 0, 0, 0); fill: rgb(255, 90, 90);" bx:shape="frame 188.425 72.675 10.074 271.419 94.056 32.897 5 5 2 2 1@9a9cd3ef"/>
    <path d="M 249.063 83.207 L 309.296 191.112 L 188.831 191.112 L 249.063 83.207 Z" style="stroke: rgba(0, 0, 0, 0); transform-box: fill-box; transform-origin: 50% 50%; fill: rgb(255, 90, 90);" transform="matrix(0, 1, -1, 0, 0.000092, 2.854492)" bx:shape="triangle 188.831 83.207 120.465 107.905 0.5 0 1@66aa52e8"/>
  </g>
</svg>